<svg height="512" viewBox="0 0 64 64" width="512" xmlns="http://www.w3.org/2000/svg"><g id="Icons"><g fill="rgb(0,0,0)"><path d="m10 46.5h13.92v-1h-13.92c-.827 0-1.5-.673-1.5-1.5v-26c0-.827.673-1.5 1.5-1.5h44c.827 0 1.5.673 1.5 1.5v26c0 .827-.673 1.5-1.5 1.5h-13.95v1h13.95c1.378 0 2.5-1.122 2.5-2.5v-26c0-1.378-1.122-2.5-2.5-2.5h-1.5v-.5c0-.827-.673-1.5-1.5-1.5h-4c-.827 0-1.5.673-1.5 1.5v.5h-3v-3.5c0-2.481-2.019-4.5-4.5-4.5h-12c-2.481 0-4.5 2.019-4.5 4.5v3.5h-3v-.5c0-.827-.673-1.5-1.5-1.5h-4c-.827 0-1.5.673-1.5 1.5v.5h-1.5c-1.378 0-2.5 1.122-2.5 2.5v26c0 1.378 1.122 2.5 2.5 2.5zm27.5-31h-11v-2.5c0-.276.224-.5.5-.5h10c.276 0 .5.224.5.5zm9-.5c0-.276.224-.5.5-.5h4c.276 0 .5.224.5.5v.5h-5zm-24-3c0-1.93 1.57-3.5 3.5-3.5h12c1.93 0 3.5 1.57 3.5 3.5v3.5h-3v-2.5c0-.827-.673-1.5-1.5-1.5h-10c-.827 0-1.5.673-1.5 1.5v2.5h-3zm-10 3c0-.276.224-.5.5-.5h4c.276 0 .5.224.5.5v.5h-5z"/><path d="m44.5 32c0-6.89-5.607-12.497-12.5-12.5-.001 0-.002 0-.004 0-6.495 0-12.333 5.699-12.496 12.197-.08 3.353 1.163 6.535 3.5 8.96 1.511 1.561 2.5 3.864 2.5 6.512v6.83c0 1.378 1.122 2.5 2.5 2.5h8c1.378 0 2.5-1.122 2.5-2.5 0-3.142 0-3.625 0-6.792 0-2.433.65-4.582 2.624-6.686 2.177-2.316 3.376-5.343 3.376-8.521zm-7 22c0 .827-.673 1.5-1.5 1.5h-8c-.827 0-1.5-.673-1.5-1.5v-5.5h11zm-6.75-18.813-1.397.805c-.228.137-.542.045-.671-.183-.143-.247-.056-.549.178-.685l1.39-.8c.334-.193.333-.675 0-.867l-1.388-.799c-.234-.136-.327-.432-.176-.693.131-.232.429-.315.675-.172l1.39.8c.335.192.75-.051.75-.433v-1.6c0-.28.22-.5.5-.5s.5.22.5.5v1.6c0 .382.414.625.75.433l1.396-.804c.223-.135.533-.066.672.182.143.245.058.547-.177.685l-1.39.8c-.333.191-.334.674 0 .867l1.388.798c.242.141.321.443.18.686-.001.002-.003.004-.004.006-.123.218-.423.324-.675.172l-1.39-.8c-.33-.191-.75.048-.75.434v11.881h-1v-11.88c-.001-.386-.421-.624-.751-.433zm6.75 12.042v.271h-4v-11.016l.633.364c.692.415 1.659.15 2.05-.54.416-.716.18-1.63-.544-2.052l-.637-.366.64-.368c.725-.423.955-1.344.543-2.047-.411-.731-1.349-.965-2.045-.548l-.64.368v-.735c0-.827-.673-1.5-1.5-1.5s-1.5.673-1.5 1.5v.735l-.638-.368c-.739-.429-1.65-.159-2.044.54-.419.719-.18 1.635.542 2.055l.637.367-.64.368c-.727.424-.954 1.346-.543 2.048.39.691 1.374.951 2.045.548l.641-.369v11.016h-4v-.33c0-2.872-1.068-5.438-2.78-7.207-2.15-2.23-3.294-5.157-3.22-8.24.149-5.98 5.521-11.223 11.496-11.223h.004c6.341.002 11.5 5.161 11.5 11.5 0 2.923-1.103 5.707-3.105 7.838-2.155 2.297-2.895 4.679-2.895 7.391z"/><path d="m11.5 32c0 .827.673 1.5 1.5 1.5h4c.827 0 1.5-.673 1.5-1.5s-.673-1.5-1.5-1.5h-4c-.827 0-1.5.673-1.5 1.5zm6 0c0 .276-.224.5-.5.5h-4c-.276 0-.5-.224-.5-.5s.224-.5.5-.5h4c.276 0 .5.224.5.5z"/><path d="m18.889 27.889c.585-.585.585-1.537 0-2.122l-2.829-2.828c-.585-.585-1.536-.584-2.121 0-.585.585-.587 1.534 0 2.122l2.828 2.829c.584.582 1.536.584 2.122-.001zm-4.243-4.243c.195-.195.512-.195.707 0l2.829 2.828c.195.195.195.512 0 .707s-.512.195-.708 0l-2.828-2.829c-.196-.196-.193-.512 0-.706z"/><path d="m16.061 41.061 2.829-2.828c.585-.585.587-1.534 0-2.122-.585-.585-1.537-.584-2.122 0l-2.828 2.828c-.585.585-.587 1.534 0 2.122.584.585 1.536.585 2.121 0zm-1.415-1.415 2.828-2.829c.195-.195.512-.196.708 0 .197.198.194.513 0 .707l-2.829 2.829c-.195.195-.512.195-.707 0-.196-.197-.193-.513 0-.707z"/><path d="m45.5 32c0 .827.673 1.5 1.5 1.5h4c.827 0 1.5-.673 1.5-1.5s-.673-1.5-1.5-1.5h-4c-.827 0-1.5.673-1.5 1.5zm6 0c0 .276-.224.5-.5.5h-4c-.276 0-.5-.224-.5-.5s.224-.5.5-.5h4c.276 0 .5.224.5.5z"/><path d="m45.111 38.232 2.829 2.829c.585.585 1.536.585 2.121 0 .587-.587.585-1.537 0-2.121l-2.828-2.829c-.585-.585-1.537-.584-2.122 0-.587.587-.586 1.537 0 2.121zm.707-1.414c.195-.195.512-.196.708 0l2.828 2.829c.195.194.196.509 0 .707-.195.195-.512.195-.707 0l-2.829-2.829c-.195-.194-.196-.51 0-.707z"/><path d="m47.939 22.939-2.829 2.828c-.585.585-.585 1.537 0 2.122.584.583 1.535.585 2.122 0l2.828-2.829c.587-.587.585-1.537 0-2.121-.584-.585-1.536-.585-2.121 0zm1.415 1.415-2.828 2.828c-.195.195-.512.195-.708 0-.195-.195-.195-.512 0-.708l2.829-2.828c.197-.196.514-.193.707 0 .194.195.196.51 0 .708z"/></g></g></svg>