<?xml version="1.0" encoding="iso-8859-1"?>
<!-- Generator: Adobe Illustrator 18.1.1, SVG Export Plug-In . SVG Version: 6.00 Build 0)  -->
<svg version="1.1" id="Capa_1" xmlns="http://www.w3.org/2000/svg" xmlns:xlink="http://www.w3.org/1999/xlink" x="0px" y="0px"
	 viewBox="0 0 43.339 43.339" style="enable-background:new 0 0 43.339 43.339;" xml:space="preserve">
<g>
	<path style="fill:#010002;" d="M15.482,31.916h1.593c0.879,0,1.592-0.962,1.592-2.149V17.965h-2.859l-1.707,2.63h1.382v11.321
		H15.482z"/>
	<path style="fill:#010002;" d="M25.195,32.185c4.259,0,5.257-3.915,5.257-7.292s-0.998-7.292-5.257-7.292
		c-4.261,0-5.258,3.915-5.258,7.292S20.934,32.185,25.195,32.185z M25.195,20.461c1.342,0,1.996,1.266,1.996,4.432
		s-0.654,4.798-1.996,4.798c-1.343,0-1.996-1.632-1.996-4.798C23.199,21.726,23.852,20.461,25.195,20.461z"/>
	<path style="fill:#010002;" d="M43.339,38.056V3.134h-3.648c0,2.923-2.371,5.294-5.294,5.294s-5.294-2.371-5.294-5.294H14.236
		c0,2.923-2.371,5.294-5.294,5.294S3.648,6.057,3.648,3.134H2.149C0.962,3.134,0,4.096,0,5.283v34.922h41.19
		C42.376,40.205,43.339,39.243,43.339,38.056z M39.69,33.758c0,1.186-0.962,2.149-2.149,2.149H3.648V16.028
		c0-1.187,0.962-2.149,2.149-2.149H39.69C39.69,13.879,39.69,33.758,39.69,33.758z"/>
</g>
<g>
</g>
<g>
</g>
<g>
</g>
<g>
</g>
<g>
</g>
<g>
</g>
<g>
</g>
<g>
</g>
<g>
</g>
<g>
</g>
<g>
</g>
<g>
</g>
<g>
</g>
<g>
</g>
<g>
</g>
</svg>
